<svg xmlns="http://www.w3.org/2000/svg" width="70" height="70" viewBox="0 0 70 70" fill="none">
<path d="M8.75 14.5833H14.5833V8.75C11.375 8.75 8.75 11.375 8.75 14.5833ZM8.75 37.9167H14.5833V32.0833H8.75V37.9167ZM20.4167 61.25H26.25V55.4167H20.4167V61.25ZM8.75 26.25H14.5833V20.4167H8.75V26.25ZM37.9167 8.75H32.0833V14.5833H37.9167V8.75ZM55.4167 8.75V14.5833H61.25C61.25 11.375 58.625 8.75 55.4167 8.75ZM14.5833 61.25V55.4167H8.75C8.75 58.625 11.375 61.25 14.5833 61.25ZM8.75 49.5833H14.5833V43.75H8.75V49.5833ZM26.25 8.75H20.4167V14.5833H26.25V8.75ZM32.0833 61.25H37.9167V55.4167H32.0833V61.25ZM55.4167 37.9167H61.25V32.0833H55.4167V37.9167ZM55.4167 61.25C58.625 61.25 61.25 58.625 61.25 55.4167H55.4167V61.25ZM55.4167 26.25H61.25V20.4167H55.4167V26.25ZM55.4167 49.5833H61.25V43.75H55.4167V49.5833ZM43.75 61.25H49.5833V55.4167H43.75V61.25ZM43.75 14.5833H49.5833V8.75H43.75V14.5833ZM23.3333 49.5833H46.6667C48.2708 49.5833 49.5833 48.2708 49.5833 46.6667V23.3333C49.5833 21.7292 48.2708 20.4167 46.6667 20.4167H23.3333C21.7292 20.4167 20.4167 21.7292 20.4167 23.3333V46.6667C20.4167 48.2708 21.7292 49.5833 23.3333 49.5833ZM26.25 26.25H43.75V43.75H26.25V26.25Z" fill="#C4C4C4"/>
</svg>
