<svg xmlns="http://www.w3.org/2000/svg" id="Calque_1" data-name="Calque 1" viewBox="0 0 1525 297.02">
  <defs>
    <linearGradient id="Dégradé_sans_nom_16" x1="211.81" x2="428.47" y1="362.76" y2="159.59" gradientUnits="userSpaceOnUse">
      <stop offset="0" stop-color="#0083ff"/>
      <stop offset="1" stop-color="#006fff"/>
    </linearGradient>
  </defs>
  <path d="M691.67 270.55c-6.48 8-15.74 10.8-35.5 10.8h-34v90.77h-40.41v-218h80.89a56.61 56.61 0 0 1 10.81.93c13 2.78 19.14 11.12 21.3 15.44 4.63 9.26 4.63 23.15 4.63 32.72V232c0 20.33-.93 30.21-7.72 38.55zm-31.8-62.06c0-6.17.93-12.66-3.08-17.6-4.64-5.86-13.28-4.63-14.82-4.63h-19.76v63.91h19.45c8.33 0 13-.93 15.43-4.32 2.78-3.71 2.78-10.81 2.78-15.13zM751 372.12v-218h39.82v218zM959.34 270.55c-6.49 8-15.75 10.8-35.51 10.8h-34v90.77h-40.4v-218h80.88a56.56 56.56 0 0 1 10.81.93c13 2.78 19.14 11.12 21.3 15.44 4.63 9.26 4.63 23.15 4.63 32.72V232c0 20.33-.92 30.21-7.71 38.55zm-31.8-62.06c0-6.17.92-12.66-3.09-17.6-4.63-5.86-13.28-4.63-14.82-4.63h-19.76v63.91h19.45c8.34 0 13-.93 15.44-4.32 2.78-3.71 2.78-10.81 2.78-15.13zM1018.61 372.12v-218h105.59v33h-65.46v51.25h61.75v33h-61.75v67h68.54v33.65zM1175.13 372.12v-218h40.14v184.97h59v33zM1318.69 372.12v-218h39.83v218zM1490 372.12l-38.6-163.32 3.4 163.32h-37.66v-218h51.55l39.21 159.93-4-159.93h36.74v218zM1599.33 372.12v-218h105.58v33h-65.45v51.25h61.75v33h-61.75v67H1708v33.65z" class="cls-1" transform="translate(-183 -102)"/>
  <path fill="url(#Dégradé_sans_nom_16)" d="M480 153.73v-9.24A42.49 42.49 0 0 0 437.53 102h-212A42.5 42.5 0 0 0 183 144.49v133.72l80.84-80.84a5.32 5.32 0 0 1 7.53 0l27.39 27.39a5.32 5.32 0 0 1 0 7.53L183 348.05v8.48A42.49 42.49 0 0 0 225.49 399h212A42.49 42.49 0 0 0 480 356.53v-133l-85.65 85.65a5.32 5.32 0 0 1-7.53 0l-27.38-27.39a5.32 5.32 0 0 1 0-7.53zM393.74 340a4.09 4.09 0 0 1 0 5.77l-29.15 29.15a4.09 4.09 0 0 1-5.77 0l-61.72-61.77a4.07 4.07 0 0 1 0-5.77l29.15-29.15a4.07 4.07 0 0 1 5.77 0zm-59.08-111a4.09 4.09 0 0 1-5.77 0l-61.72-61.72a4.07 4.07 0 0 1 0-5.77l29.15-29.15a4.07 4.07 0 0 1 5.77 0L363.81 194a4.09 4.09 0 0 1 0 5.77z" transform="translate(-183 -102)"/>
</svg>
